<svg width="24" height="25" viewBox="0 0 24 25" fill="none" xmlns="http://www.w3.org/2000/svg">
<g clip-path="url(#clip0_2136_7371)">
<path d="M9 24.5H1C0.734784 24.5 0.48043 24.3946 0.292893 24.2071C0.105357 24.0196 0 23.7652 0 23.5C0 23.2348 0.105357 22.9804 0.292893 22.7929C0.48043 22.6054 0.734784 22.5 1 22.5H9C9.26522 22.5 9.51957 22.6054 9.70711 22.7929C9.89464 22.9804 10 23.2348 10 23.5C10 23.7652 9.89464 24.0196 9.70711 24.2071C9.51957 24.3946 9.26522 24.5 9 24.5Z" fill="#0BA7E3"/>
<path d="M7 20.5H1C0.734784 20.5 0.48043 20.3946 0.292893 20.2071C0.105357 20.0196 0 19.7652 0 19.5C0 19.2348 0.105357 18.9804 0.292893 18.7929C0.48043 18.6054 0.734784 18.5 1 18.5H7C7.26522 18.5 7.51957 18.6054 7.70711 18.7929C7.89464 18.9804 8 19.2348 8 19.5C8 19.7652 7.89464 20.0196 7.70711 20.2071C7.51957 20.3946 7.26522 20.5 7 20.5Z" fill="#0BA7E3"/>
<path d="M5 16.5H1C0.734784 16.5 0.48043 16.3946 0.292893 16.2071C0.105357 16.0196 0 15.7652 0 15.5C0 15.2348 0.105357 14.9804 0.292893 14.7929C0.48043 14.6054 0.734784 14.5 1 14.5H5C5.26522 14.5 5.51957 14.6054 5.70711 14.7929C5.89464 14.9804 6 15.2348 6 15.5C6 15.7652 5.89464 16.0196 5.70711 16.2071C5.51957 16.3946 5.26522 16.5 5 16.5Z" fill="#0BA7E3"/>
<path d="M13 24.455C12.7348 24.4668 12.4757 24.3728 12.2798 24.1936C12.084 24.0144 11.9673 23.7647 11.9555 23.4995C11.9437 23.2343 12.0377 22.9752 12.2169 22.7794C12.3961 22.5835 12.6458 22.4668 12.911 22.455C14.8034 22.2818 16.6074 21.573 18.1115 20.4116C19.6157 19.2501 20.7577 17.6841 21.4039 15.897C22.0501 14.1099 22.1737 12.1756 21.7602 10.3208C21.3468 8.46597 20.4133 6.76735 19.0692 5.4239C17.7252 4.08044 16.0261 3.14779 14.1711 2.73516C12.3161 2.32254 10.3819 2.44703 8.59505 3.09405C6.80823 3.74108 5.24276 4.88385 4.08201 6.38852C2.92125 7.89319 2.21327 9.69745 2.04098 11.59C2.01711 11.8541 1.88929 12.098 1.68562 12.2679C1.48196 12.4378 1.21914 12.5199 0.954983 12.496C0.690827 12.4721 0.446973 12.3443 0.277065 12.1406C0.107157 11.937 0.0251132 11.6741 0.0489827 11.41C0.327872 8.3333 1.78259 5.48269 4.11031 3.45156C6.43804 1.42042 9.45942 0.365257 12.5455 0.505705C15.6316 0.646152 18.5447 1.97139 20.6783 4.20556C22.8119 6.43973 24.0017 9.41069 24 12.5C24.0153 15.4983 22.9014 18.3926 20.8799 20.607C18.8583 22.8214 16.0773 24.1938 13.09 24.451C13.06 24.454 13.029 24.455 13 24.455Z" fill="#0BA7E3"/>
<path d="M12 6.5C11.7348 6.5 11.4804 6.60536 11.2929 6.79289C11.1054 6.98043 11 7.23478 11 7.5V12.5C11.0001 12.7652 11.1055 13.0195 11.293 13.207L14.293 16.207C14.4816 16.3892 14.7342 16.49 14.9964 16.4877C15.2586 16.4854 15.5094 16.3802 15.6948 16.1948C15.8802 16.0094 15.9854 15.7586 15.9877 15.4964C15.99 15.2342 15.8892 14.9816 15.707 14.793L13 12.086V7.5C13 7.23478 12.8946 6.98043 12.7071 6.79289C12.5196 6.60536 12.2652 6.5 12 6.5Z" fill="#0BA7E3"/>
</g>
<defs>
<clipPath id="clip0_2136_7371">
<rect width="24" height="24" fill="white" transform="translate(0 0.5)"/>
</clipPath>
</defs>
</svg>
