<svg width="21" height="21" viewBox="0 0 21 21" fill="none" xmlns="http://www.w3.org/2000/svg">
<g clip-path="url(#clip0_2136_7349)">
<path d="M10.583 0.637695C5.06016 0.637695 0.583008 5.11484 0.583008 10.6377C0.583008 16.1605 5.06016 20.6377 10.583 20.6377C16.1059 20.6377 20.583 16.1605 20.583 10.6377C20.577 5.1173 16.1034 0.643672 10.583 0.637695ZM13.9163 12.7935C14.255 13.1052 14.2768 13.6324 13.9652 13.971C13.6535 14.3096 13.1263 14.3315 12.7877 14.0198C12.7707 14.0043 12.7545 13.988 12.7388 13.971L10.583 11.816L8.42801 13.971C8.09695 14.2907 7.56941 14.2816 7.24969 13.9505C6.93781 13.6276 6.93781 13.1156 7.24969 12.7927L9.40469 10.6377L7.24969 8.4827C6.92996 8.15164 6.93914 7.6241 7.2702 7.30438C7.59312 6.9925 8.10508 6.9925 8.42801 7.30438L10.583 9.45938L12.7388 7.30438C13.0505 6.96574 13.5777 6.94387 13.9163 7.25555C14.255 7.56723 14.2768 8.09441 13.9652 8.43305C13.9496 8.45 13.9333 8.46625 13.9163 8.48188L11.7613 10.6377L13.9163 12.7935Z" fill="#FF5E5E"/>
</g>
<defs>
<clipPath id="clip0_2136_7349">
<rect width="20" height="20" fill="white" transform="translate(0.583008 0.637695)"/>
</clipPath>
</defs>
</svg>
